# xmcd
#
# Track frame offsets:
#	150
#	14450
#	51842
#
# Disc length: 1186 seconds
#
# Revision: 5
# Processed by: cddbd v1.5.2PL0 Copyright (c) Steve Scherf et al.
# Submitted via: audiograbber 1.83.01
#
DISCID=1e04a003
DTITLE=Green Court vs. De Vision - Shining
DYEAR=2000
DGENRE=Electronic
TTITLE0=Shining (7 Inch Radio Cut)
TTITLE1=Shining (Sunshine Club Mix)
TTITLE2=Trancefiguration (12 Inch Mix)
EXTD=
EXTT0=
EXTT1=
EXTT2=
PLAYORDER=
